<?xml version="1.0" encoding="utf-8"?>
<!-- Generator: Adobe Illustrator 25.3.1, SVG Export Plug-In . SVG Version: 6.00 Build 0)  -->
<svg version="1.1"
	 id="Layer_1" xmlns:cc="http://creativecommons.org/ns#" xmlns:dc="http://purl.org/dc/elements/1.1/" xmlns:rdf="http://www.w3.org/1999/02/22-rdf-syntax-ns#" xmlns:svg="http://www.w3.org/2000/svg"
	 xmlns="http://www.w3.org/2000/svg" xmlns:xlink="http://www.w3.org/1999/xlink" x="0px" y="0px" viewBox="0 0 128 128"
	 style="enable-background:new 0 0 128 128;" xml:space="preserve">
<style type="text/css">
	.st0{fill:#A0A0A1;}
</style>
<desc>This is shape (source) for Clarity vector icon theme for gtk</desc>
<path class="st0" d="M64,8.9C33.8,8.9,9.4,33.6,9.4,64s24.4,55.1,54.6,55.1s54.6-24.6,54.6-55.1S94.1,8.9,64,8.9z M63,25.5
	c2.1,0,3.9,0.7,5.3,2.2c1.5,1.4,2.2,3.2,2.2,5.3c0,2.2-0.7,4-2.2,5.5c-1.5,1.5-3.3,2.2-5.5,2.2c-2.2,0-3.9-0.7-5.3-2.1
	c-1.4-1.5-2.1-3.3-2.1-5.4c0-2.2,0.7-4.1,2.2-5.5C59,26.2,60.8,25.5,63,25.5z M68.2,47.7c1.6,0,2.4,0.8,2.4,2.4
	c0,0.7-0.1,1.8-0.3,3.2c-0.2,1.4-0.3,2.5-0.3,3.2c0,2.5-0.1,6.2-0.1,11.1c0,4.9-0.1,8.6-0.1,11.1c0,5.8,0.1,9.8,0.2,12
	c0.1,2.5,1,4.1,2.6,5c1.5,0.3,2.9,0.7,4.4,1.1c1.5,0.3,2.2,1.2,2.2,2.7c0,2-3.2,3-9.5,3c-6.9,0-12.7-0.1-17.4-0.3
	c-2.3-0.1-3.5-1-3.5-2.7c0-1.5,0.8-2.4,2.5-2.8c2.7-0.6,4.2-1,4.4-1.1c1.6-0.9,2.5-2.8,2.5-5.7c0-2.1,0-5.3,0.1-9.5
	c0-4.2,0.1-7.4,0.1-9.5c0-5.2-0.1-8.6-0.2-10.3c-0.1-2.5-1.6-4-4.5-4.5c-2.8-0.5-4.2-1.6-4.2-3.2c0-1.4,0.8-2.2,2.6-2.5
	c-0.4,0.1,1,0.1,4.2,0.1c1.5,0,3.5-0.4,6.2-1.3C65,48.1,66.9,47.7,68.2,47.7z"/>
</svg>
